# xmcd
#
# Track frame offsets: 
#        150
#        17058
#        31685
#        49035
#
# Disc length: 848 seconds
#
# Revision: 0
# Processed by: cddbd v1.5.2PL0 Copyright (c) Steve Scherf et al.
# Submitted via: ExactAudioCopyFreeDBPlugin 1.0
#
DISCID=23034e04
DTITLE=Monti Amundson - Take A Walk
DYEAR=1993
DGENRE=Blues
TTITLE0=Take A Walk
TTITLE1=Lesson Or Two
TTITLE2=Rock Treatment (Live)
TTITLE3=Brain Grenade (Live)
EXTD=
EXTT0=
EXTT1=
EXTT2=
EXTT3=
PLAYORDER=
